<svg style="display: none;">
    <symbol id="hamburger-button" viewBox="0 0 28 28">
        <path d="M3 7C3 6.44771 3.44772 6 4 6H24C24.5523 6 25 6.44771 25 7C25 7.55229 24.5523 8 24 8H4C3.44772 8 3 7.55229 3 7Z"/>
        <path d="M3 14C3 13.4477 3.44772 13 4 13H24C24.5523 13 25 13.4477 25 14C25 14.5523 24.5523 15 24 15H4C3.44772 15 3 14.5523 3 14Z"/>
        <path d="M4 20C3.44772 20 3 20.4477 3 21C3 21.5523 3.44772 22 4 22H24C24.5523 22 25 21.5523 25 21C25 20.4477 24.5523 20 24 20H4Z"/>
    </symbol>

    <symbol id="close" viewBox="0 0 26 26">
        <path d="M 21.734375 19.640625 L 19.636719 21.734375 C 19.253906 22.121094 18.628906 22.121094 18.242188 21.734375 L 13 16.496094 L 7.761719 21.734375 C 7.375 22.121094 6.746094 22.121094 6.363281 21.734375 L 4.265625 19.640625 C 3.878906 19.253906 3.878906 18.628906 4.265625 18.242188 L 9.503906 13 L 4.265625 7.761719 C 3.882813 7.371094 3.882813 6.742188 4.265625 6.363281 L 6.363281 4.265625 C 6.746094 3.878906 7.375 3.878906 7.761719 4.265625 L 13 9.507813 L 18.242188 4.265625 C 18.628906 3.878906 19.257813 3.878906 19.636719 4.265625 L 21.734375 6.359375 C 22.121094 6.746094 22.121094 7.375 21.738281 7.761719 L 16.496094 13 L 21.734375 18.242188 C 22.121094 18.628906 22.121094 19.253906 21.734375 19.640625 Z"/>
    </symbol>

    <symbol id="twitter" viewBox="0 0 24 24">
        <path d="M19.7828 3.91825C20.1313 3.83565 20.3743 3.75444 20.5734 3.66915C20.8524 3.54961 21.0837 3.40641 21.4492 3.16524C21.7563 2.96255 22.1499 2.9449 22.4739 3.11928C22.7979 3.29366 23 3.6319 23 3.99986C23 5.08079 22.8653 5.96673 22.5535 6.7464C22.2911 7.40221 21.9225 7.93487 21.4816 8.41968C21.2954 11.7828 20.3219 14.4239 18.8336 16.4248C17.291 18.4987 15.2386 19.8268 13.0751 20.5706C10.9179 21.3121 8.63863 21.4778 6.5967 21.2267C4.56816 20.9773 2.69304 20.3057 1.38605 19.2892C1.02813 19.0108 0.902313 18.5264 1.07951 18.109C1.25671 17.6916 1.69256 17.4457 2.14144 17.5099C3.42741 17.6936 4.6653 17.4012 5.6832 16.9832C5.48282 16.8742 5.29389 16.7562 5.11828 16.6346C4.19075 15.9925 3.4424 15.1208 3.10557 14.4471C2.96618 14.1684 2.96474 13.8405 3.10168 13.5606C3.17232 13.4161 3.27562 13.293 3.40104 13.1991C2.04677 12.0814 1.49999 10.5355 1.49999 9.49986C1.49999 9.19192 1.64187 8.90115 1.88459 8.71165C1.98665 8.63197 2.10175 8.57392 2.22308 8.53896C2.12174 8.24222 2.0431 7.94241 1.98316 7.65216C1.71739 6.3653 1.74098 4.91284 2.02985 3.75733C2.1287 3.36191 2.45764 3.06606 2.86129 3.00952C3.26493 2.95299 3.6625 3.14709 3.86618 3.50014C4.94369 5.36782 6.93116 6.50943 8.78086 7.18568C9.6505 7.50362 10.4559 7.70622 11.0596 7.83078C11.1899 6.61019 11.5307 5.6036 12.0538 4.80411C12.7439 3.74932 13.7064 3.12525 14.74 2.84698C16.5227 2.36708 18.5008 2.91382 19.7828 3.91825ZM10.7484 9.80845C10.0633 9.67087 9.12171 9.43976 8.09412 9.06408C6.7369 8.56789 5.16088 7.79418 3.84072 6.59571C3.86435 6.81625 3.89789 7.03492 3.94183 7.24766C4.16308 8.31899 4.5742 8.91899 4.94721 9.10549C5.40342 9.3336 5.61484 9.8685 5.43787 10.3469C5.19827 10.9946 4.56809 11.0477 3.99551 10.9046C4.45603 11.595 5.28377 12.2834 6.66439 12.5135C7.14057 12.5929 7.49208 13.0011 7.49986 13.4838C7.50765 13.9665 7.16949 14.3858 6.69611 14.4805L5.82565 14.6546C5.95881 14.7703 6.103 14.8838 6.2567 14.9902C6.95362 15.4727 7.65336 15.6808 8.25746 15.5298C8.70991 15.4167 9.18047 15.6313 9.39163 16.0472C9.60278 16.463 9.49846 16.9696 9.14018 17.2681C8.49626 17.8041 7.74425 18.2342 6.99057 18.5911C6.63675 18.7587 6.24134 18.9241 5.8119 19.0697C6.14218 19.1402 6.48586 19.198 6.84078 19.2417C8.61136 19.4594 10.5821 19.3126 12.4249 18.6792C14.2614 18.0479 15.9589 16.9385 17.2289 15.2312C18.497 13.5262 19.382 11.1667 19.5007 7.96291C19.51 7.71067 19.6144 7.47129 19.7929 7.29281C20.2425 6.84316 20.6141 6.32777 20.7969 5.7143C20.477 5.81403 20.1168 5.90035 19.6878 5.98237C19.3623 6.04459 19.0272 5.94156 18.7929 5.70727C18.0284 4.94274 16.5164 4.43998 15.2599 4.77822C14.6686 4.93741 14.1311 5.28203 13.7274 5.89906C13.3153 6.52904 13 7.51045 13 8.9999C13 9.28288 12.8801 9.5526 12.6701 9.74221C12.1721 10.1917 11.334 9.92603 10.7484 9.80845Z"/>
    </symbol>

    <symbol id="instagram" viewBox="0 0 300 300">
        <path d="M38.52,0.012h222.978C282.682,0.012,300,17.336,300,38.52v222.978c0,21.178-17.318,38.49-38.502,38.49   H38.52c-21.184,0-38.52-17.313-38.52-38.49V38.52C0,17.336,17.336,0.012,38.52,0.012z M218.546,33.329   c-7.438,0-13.505,6.091-13.505,13.525v32.314c0,7.437,6.067,13.514,13.505,13.514h33.903c7.426,0,13.506-6.077,13.506-13.514   V46.854c0-7.434-6.08-13.525-13.506-13.525H218.546z M266.084,126.868h-26.396c2.503,8.175,3.86,16.796,3.86,25.759   c0,49.882-41.766,90.34-93.266,90.34c-51.487,0-93.254-40.458-93.254-90.34c0-8.963,1.37-17.584,3.861-25.759H33.35v126.732   c0,6.563,5.359,11.902,11.916,11.902h208.907c6.563,0,11.911-5.339,11.911-11.902V126.868z M150.283,90.978   c-33.26,0-60.24,26.128-60.24,58.388c0,32.227,26.98,58.375,60.24,58.375c33.278,0,60.259-26.148,60.259-58.375   C210.542,117.105,183.561,90.978,150.283,90.978z"/>
    </symbol>

    <symbol  id="linked_in" viewBox="0 0 552.77 552.77">
        <path d="M17.95,528.854h71.861c9.914,0,17.95-8.037,17.95-17.951V196.8c0-9.915-8.036-17.95-17.95-17.95H17.95    C8.035,178.85,0,186.885,0,196.8v314.103C0,520.816,8.035,528.854,17.95,528.854z"/>
        <path d="M17.95,123.629h71.861c9.914,0,17.95-8.036,17.95-17.95V41.866c0-9.914-8.036-17.95-17.95-17.95H17.95    C8.035,23.916,0,31.952,0,41.866v63.813C0,115.593,8.035,123.629,17.95,123.629z"/>
        <path d="M525.732,215.282c-10.098-13.292-24.988-24.223-44.676-32.791c-19.688-8.562-41.42-12.846-65.197-12.846    c-48.268,0-89.168,18.421-122.699,55.27c-6.672,7.332-11.523,5.729-11.523-4.186V196.8c0-9.915-8.037-17.95-17.951-17.95h-64.192    c-9.915,0-17.95,8.035-17.95,17.95v314.103c0,9.914,8.036,17.951,17.95,17.951h71.861c9.915,0,17.95-8.037,17.95-17.951V401.666    c0-45.508,2.748-76.701,8.244-93.574c5.494-16.873,15.66-30.422,30.488-40.649c14.83-10.227,31.574-15.343,50.24-15.343    c14.572,0,27.037,3.58,37.393,10.741c10.355,7.16,17.834,17.19,22.436,30.104c4.604,12.912,6.904,41.354,6.904,85.33v132.627    c0,9.914,8.035,17.951,17.949,17.951h71.861c9.914,0,17.949-8.037,17.949-17.951V333.02c0-31.445-1.982-55.607-5.941-72.48    S535.836,228.581,525.732,215.282z"/>
    </symbol>

    <symbol id="facebook" viewBox="0 0 32 32">
        <path xmlns="http://www.w3.org/2000/svg" d="M21.95 5.005l-3.306-.004c-3.206 0-5.277 2.124-5.277 5.415v2.495H10.05v4.515h3.317l-.004 9.575h4.641l.004-9.575h3.806l-.003-4.514h-3.803v-2.117c0-1.018.241-1.533 1.566-1.533l2.366-.001.01-4.256z"/>
    </symbol>

    <symbol id="youtube" viewBox="0 0 96.875 96.875">
        <path d="M95.201,25.538c-1.186-5.152-5.4-8.953-10.473-9.52c-12.013-1.341-24.172-1.348-36.275-1.341   c-12.105-0.007-24.266,0-36.279,1.341c-5.07,0.567-9.281,4.368-10.467,9.52C0.019,32.875,0,40.884,0,48.438   C0,55.992,0,64,1.688,71.336c1.184,5.151,5.396,8.952,10.469,9.52c12.012,1.342,24.172,1.349,36.277,1.342   c12.107,0.007,24.264,0,36.275-1.342c5.07-0.567,9.285-4.368,10.471-9.52c1.689-7.337,1.695-15.345,1.695-22.898   C96.875,40.884,96.889,32.875,95.201,25.538z M35.936,63.474c0-10.716,0-21.32,0-32.037c10.267,5.357,20.466,10.678,30.798,16.068   C56.434,52.847,46.23,58.136,35.936,63.474z"/>
    </symbol>

    <symbol id="google_plus" viewBox="0 0 16 16">
        <path d="M16 3.9h-2.8v-2.6h-0.6v2.6h-2.7v0.8h2.7v2.6h0.6v-2.6h2.8z"/>
        <path d="M6.9 9c-0.4-0.2-1.1-0.9-1.1-1.3s0.1-0.7 0.8-1.2c0.7-0.5 1.2-1.2 1.2-2.1 0-1.1-0.5-2.1-1.3-2.4h1.3l0.9-0.7c0 0-3.1 0-4.2 0-1.9 0-3.6 1.4-3.6 3.1s1.3 3 3.2 3c0.1 0 0.3 0 0.4 0-0.2 0.2-0.2 0.4-0.2 0.7 0 0.5 0.3 0.8 0.6 1.2-0.2 0-0.5 0-0.7 0-2.3 0-4.1 1.5-4.1 3s2 2.5 4.3 2.5c2.6 0 4.1-1.5 4.1-3-0.1-1.3-0.5-2-1.6-2.8zM4.7 6.9c-1.1 0-2.1-1.2-2.3-2.6s0.5-2.5 1.6-2.5c1.1 0 2.1 1.2 2.3 2.6s-0.5 2.6-1.6 2.5zM4.3 14.1c-1.6 0-2.8-1-2.8-2.2s1.4-2.2 3-2.2c0.4 0 0.7 0.1 1 0.2 0.9 0.6 1.5 0.9 1.7 1.6 0 0.1 0.1 0.3 0.1 0.4 0 1.2-0.8 2.2-3 2.2z"/>
    </symbol>

    <symbol id="ellipsis" viewBox="0 0 24 24">
        <circle cx="6" cy="12" r="2"/>
        <circle cx="12" cy="12" r="2"/>
        <path d="M20 12C20 13.1046 19.1046 14 18 14C16.8954 14 16 13.1046 16 12C16 10.8954 16.8954 10 18 10C19.1046 10 20 10.8954 20 12Z"/>
    </symbol>

    <symbol id="arrow_top" viewBox="0 0 512 512">
        <path d="M472.732,243.625l-0.869-1.337l-0.929-1.296L320.925,33.194C305.854,12.379,281.598,0,255.996,0   c-25.594,0-49.85,12.379-64.87,33.125L41.066,240.992l-0.929,1.296l-0.869,1.337c-8.17,12.669-12.49,27.323-12.49,42.395   c0,16.196,4.924,31.753,14.254,44.993c18.105,25.755,49.441,38.015,80.18,31.463v63.755c0,47.294,38.476,85.769,85.769,85.769   h98.039c47.285,0,85.76-38.475,85.76-85.769v-63.755c30.689,6.586,62.059-5.666,80.215-31.497   c9.295-13.206,14.228-28.772,14.228-44.959C485.222,270.948,480.902,256.294,472.732,243.625z M421.034,295.86   c-4.013,5.708-11.084,8.401-17.866,6.808l-73.459-17.159v140.722c0,13.64-11.05,24.698-24.69,24.698H206.98   c-13.64,0-24.698-11.059-24.698-24.698V285.509l-73.442,17.159c-6.799,1.584-13.861-1.099-17.874-6.808   c-2.079-2.948-3.118-6.39-3.118-9.84c0-3.221,0.912-6.45,2.735-9.278L240.592,68.942c3.578-4.942,9.304-7.872,15.404-7.872   s11.834,2.93,15.412,7.872l150.009,207.799c1.823,2.828,2.734,6.057,2.734,9.278C424.152,289.47,423.104,292.912,421.034,295.86z"/>
    </symbol>

    <symbol id="phone_call" viewBox="0 0 24 24">
        <path d="M14.5 6.5C15.2372 6.64382 15.9689 6.96892 16.5 7.5C17.0311 8.03108 17.3562 8.76284 17.5 9.5M15 3C16.5315 3.17014 17.9097 3.91107 19 5C20.0903 6.08893 20.8279 7.46869 21 9M20.9995 16.4767V19.1864C21.0037 20.2223 20.0723 21.0873 19.0265 20.9929C10.0001 21 3.00006 13.935 3.00713 4.96919C2.91294 3.92895 3.77364 3.00106 4.80817 3.00009H7.52331C7.96253 2.99577 8.38835 3.151 8.72138 3.43684C9.66819 4.24949 10.2772 7.00777 10.0429 8.10428C9.85994 8.96036 8.99696 9.55929 8.41026 10.1448C9.69864 12.4062 11.5747 14.2785 13.8405 15.5644C14.4272 14.9788 15.0274 14.1176 15.8851 13.935C16.9855 13.7008 19.7615 14.3106 20.5709 15.264C20.858 15.6021 21.0105 16.0337 20.9995 16.4767Z" stroke-width="1.5" stroke-linecap="round" stroke-linejoin="round"/>
    </symbol>
</svg>